<?xml version="1.0" encoding="utf-8"?>
<!-- Generator: Adobe Illustrator 25.0.0, SVG Export Plug-In . SVG Version: 6.00 Build 0)  -->
<svg version="1.1" id="Layer_1" xmlns="http://www.w3.org/2000/svg" xmlns:xlink="http://www.w3.org/1999/xlink" x="20px"
     y="20px"
     viewBox="1 1 600 1" style="enable-background:new 0 0 1024 1024;" xml:space="preserve">
<style type="text/css">
	.st0{fill:#68348B;stroke:#FFFFFF;stroke-width:0.75;stroke-miterlimit:10;}
	.st1{fill:#E9AE0B;}
	.st2{fill:none;stroke:#FFFFFF;stroke-width:0.75;stroke-miterlimit:10;}
</style>
    <g>
	<g>
		<g>
			<path class="st0" d="M30.05,91.02c0-20.46,0-40.92,0-61.38c37.2,0,74.4,0,111.61,0c0,10.76,0,21.51,0,32.27
				c0,4.41,0,4.41-4.36,4.41c-2.89,0-5.78,0-8.85,0c0-7.99,0-15.66,0-23.41c-28.45,0-56.7,0-85.03,0c0,11.68,0,23.23,0,35.01
				c32.81,0,65.44,0,98.24,0c0,20.59,0,40.96,0,61.33c-37.2,0-74.4,0-111.61,0c0-12.26,0-24.46,0-36.67c4.34,0,8.69,0,13.27,0
				c0,7.9,0,15.56,0,23.28c28.5,0,56.76,0,85.07,0c0-11.65,0-23.16,0-34.84C95.52,91.02,62.78,91.02,30.05,91.02z"/>
            <path class="st0" d="M173.54,139.25c-7.44,0-14.88,0-22.32,0c-0.07-0.79-0.19-1.57-0.19-2.36c-0.01-34.97-0.01-69.93,0-104.9
				c0-0.79,0.12-1.57,0.19-2.36c4.38,0,8.77,0,13.15,0c-0.03,0.33-0.1,0.66-0.1,0.99c-0.01,15.27-0.01,30.53,0,45.8
				c0,0.43,0.15,0.86,0.21,1.21c28.38,0,56.61,0,84.83,0c0.08-0.35,0.17-0.54,0.17-0.73c0.01-10.89,0-21.77,0.04-32.66
				c0-1.15-0.46-1.49-1.54-1.47c-2.49,0.05-4.99,0.02-7.86,0.02c0-4.57,0-8.86,0-13.16c7.44,0,14.88,0,22.32,0
				c0,36.54,0,73.08,0,109.61c-4.25,0-8.5,0-12.76,0c-0.06-0.79-0.17-1.58-0.17-2.37c-0.01-14.48-0.01-28.96-0.01-43.43
				c0-0.76,0-1.53,0-2.29c-28.59,0-56.84,0-85.14,0c0,11.63,0,23.1,0,34.88c3.02,0,5.96,0,9.18,0
				C173.54,130.65,173.54,134.95,173.54,139.25z"/>
            <g>
				<path class="st1" d="M96.92,53.8c0,4.43,0,8.6,0,12.94c-14.8,0-29.5,0-44.36,0c0-4.28,0-8.55,0-12.94
					C67.35,53.8,82.05,53.8,96.92,53.8z"/>
                <path class="st2" d="M96.92,53.8c0,4.43,0,8.6,0,12.94c-14.8,0-29.5,0-44.36,0c0-4.28,0-8.55,0-12.94
					C67.35,53.8,82.05,53.8,96.92,53.8z"/>
			</g>
            <g>
				<path class="st1" d="M106.27,53.77c4.39,0,8.6,0,12.95,0c0,4.35,0,8.62,0,13c-4.3,0-8.56,0-12.95,0
					C106.27,62.41,106.27,58.2,106.27,53.77z"/>
                <path class="st2" d="M106.27,53.77c4.39,0,8.6,0,12.95,0c0,4.35,0,8.62,0,13c-4.3,0-8.56,0-12.95,0
					C106.27,62.41,106.27,58.2,106.27,53.77z"/>
			</g>
            <g>
				<path class="st1" d="M217.8,102c0,4.35,0,8.58,0,12.94c-0.66,0.05-1.23,0.13-1.8,0.13c-13.48,0-26.97-0.04-40.45,0.03
					c-1.78,0.01-2.27-0.5-2.21-2.24c0.13-3.57,0.04-7.15,0.04-10.86C188.26,102,202.91,102,217.8,102z"/>
                <path class="st2" d="M217.8,102c0,4.35,0,8.58,0,12.94c-0.66,0.05-1.23,0.13-1.8,0.13c-13.48,0-26.97-0.04-40.45,0.03
					c-1.78,0.01-2.27-0.5-2.21-2.24c0.13-3.57,0.04-7.15,0.04-10.86C188.26,102,202.91,102,217.8,102z"/>
			</g>
            <g>
				<path class="st1" d="M227.07,101.94c4.55,0,8.72,0,13.24,0c0,2.76,0,5.45,0,8.14c0,4.99-0.01,5-4.98,4.99
					c-2.26,0-4.51,0.06-6.76-0.06c-0.51-0.03-1.42-0.65-1.43-1.02C227.03,110.03,227.07,106.07,227.07,101.94z"/>
                <path class="st2" d="M227.07,101.94c4.55,0,8.72,0,13.24,0c0,2.76,0,5.45,0,8.14c0,4.99-0.01,5-4.98,4.99
					c-2.26,0-4.51,0.06-6.76-0.06c-0.51-0.03-1.42-0.65-1.43-1.02C227.03,110.03,227.07,106.07,227.07,101.94z"/>
			</g>
            <g>
				<path class="st1" d="M173.37,53.78c14.9,0,29.6,0,44.41,0c0,4.35,0,8.57,0,13c-0.66,0.04-1.29,0.12-1.92,0.12
					c-13.41,0-26.82-0.05-40.23,0.02c-1.88,0.01-2.37-0.58-2.3-2.37C173.47,60.99,173.37,57.42,173.37,53.78z"/>
                <path class="st2" d="M173.37,53.78c14.9,0,29.6,0,44.41,0c0,4.35,0,8.57,0,13c-0.66,0.04-1.29,0.12-1.92,0.12
					c-13.41,0-26.82-0.05-40.23,0.02c-1.88,0.01-2.37-0.58-2.3-2.37C173.47,60.99,173.37,57.42,173.37,53.78z"/>
			</g>
            <g>
				<path class="st1" d="M227.07,53.79c4.46,0,8.68,0,13.24,0c0,2.71,0,5.4,0,8.09c0,5.03,0,5.03-4.97,5.02
					c-2.26-0.01-4.51,0.04-6.76-0.08c-0.52-0.03-1.43-0.66-1.44-1.03C227.03,61.83,227.07,57.87,227.07,53.79z"/>
                <path class="st2" d="M227.07,53.79c4.46,0,8.68,0,13.24,0c0,2.71,0,5.4,0,8.09c0,5.03,0,5.03-4.97,5.02
					c-2.26-0.01-4.51,0.04-6.76-0.08c-0.52-0.03-1.43-0.66-1.44-1.03C227.03,61.83,227.07,57.87,227.07,53.79z"/>
			</g>
            <g>
				<path class="st1" d="M52.48,115.07c0-4.51,0-8.72,0-13.07c14.78,0,29.47,0,44.29,0c0.08,0.43,0.23,0.86,0.23,1.29
					c0.01,3.38-0.02,6.77,0,10.15c0.01,0.97-0.09,1.65-1.35,1.65C81.33,115.06,67.01,115.07,52.48,115.07z"/>
                <path class="st2" d="M52.48,115.07c0-4.51,0-8.72,0-13.07c14.78,0,29.47,0,44.29,0c0.08,0.43,0.23,0.86,0.23,1.29
					c0.01,3.38-0.02,6.77,0,10.15c0.01,0.97-0.09,1.65-1.35,1.65C81.33,115.06,67.01,115.07,52.48,115.07z"/>
			</g>
            <g>
				<path class="st1" d="M119.26,114.98c-4.37,0-8.59,0-12.96,0c0-4.33,0-8.59,0-12.98c4.32,0,8.58,0,12.96,0
					C119.26,106.32,119.26,110.52,119.26,114.98z"/>
                <path class="st2" d="M119.26,114.98c-4.37,0-8.59,0-12.96,0c0-4.33,0-8.59,0-12.98c4.32,0,8.58,0,12.96,0
					C119.26,106.32,119.26,110.52,119.26,114.98z"/>
			</g>
		</g>
	</g>
        <g>
		<path class="st0" d="M270.58,89.3l5.48-0.53c0.33,1.84,1,3.19,2.01,4.05c1.01,0.86,2.37,1.29,4.08,1.29c1.81,0,3.18-0.38,4.1-1.15
			c0.92-0.77,1.38-1.66,1.38-2.69c0-0.66-0.19-1.22-0.58-1.68c-0.39-0.46-1.06-0.87-2.03-1.21c-0.66-0.23-2.16-0.63-4.51-1.22
			c-3.02-0.75-5.14-1.67-6.35-2.76c-1.71-1.53-2.57-3.41-2.57-5.61c0-1.42,0.4-2.75,1.21-3.99c0.81-1.24,1.97-2.18,3.48-2.82
			c1.51-0.65,3.34-0.97,5.49-0.97c3.5,0,6.13,0.77,7.9,2.3c1.77,1.54,2.7,3.58,2.79,6.14l-5.63,0.25c-0.24-1.43-0.76-2.46-1.55-3.09
			c-0.79-0.63-1.98-0.94-3.57-0.94c-1.64,0-2.92,0.34-3.84,1.01c-0.6,0.43-0.89,1.01-0.89,1.73c0,0.66,0.28,1.22,0.84,1.69
			c0.71,0.6,2.43,1.22,5.17,1.86c2.74,0.65,4.77,1.32,6.08,2.01c1.31,0.69,2.34,1.64,3.08,2.83s1.11,2.68,1.11,4.44
			c0,1.6-0.45,3.09-1.33,4.49c-0.89,1.4-2.14,2.43-3.77,3.11c-1.62,0.68-3.65,1.02-6.07,1.02c-3.53,0-6.23-0.81-8.12-2.44
			C272.07,94.8,270.95,92.42,270.58,89.3z"/>
            <path class="st0" d="M299.28,98.38V70.49h8.43l5.06,19.02l5-19.02h8.45v27.89h-5.23V76.43l-5.54,21.95h-5.42l-5.52-21.95v21.95
			H299.28z"/>
            <path class="st0" d="M358.33,98.38h-6.12l-2.44-6.33h-11.15l-2.3,6.33h-5.97l10.86-27.89h5.95L358.33,98.38z M347.96,87.35
			L344.12,77l-3.77,10.35H347.96z"/>
            <path class="st0" d="M362.71,98.38V70.49h11.85c2.98,0,5.15,0.25,6.5,0.75s2.43,1.39,3.24,2.67c0.81,1.28,1.22,2.75,1.22,4.39
			c0,2.09-0.62,3.82-1.85,5.18c-1.23,1.36-3.07,2.22-5.52,2.58c1.22,0.71,2.22,1.49,3.02,2.34c0.79,0.85,1.86,2.36,3.21,4.53
			l3.41,5.44h-6.73l-4.07-6.07c-1.45-2.17-2.43-3.54-2.97-4.1c-0.53-0.56-1.1-0.95-1.69-1.16c-0.6-0.21-1.54-0.31-2.83-0.31h-1.14
			v11.64H362.71z M368.34,82.29h4.17c2.7,0,4.39-0.11,5.06-0.34s1.2-0.62,1.58-1.18c0.38-0.56,0.57-1.26,0.57-2.09
			c0-0.94-0.25-1.7-0.75-2.27s-1.21-0.94-2.12-1.09c-0.46-0.06-1.83-0.09-4.11-0.09h-4.39V82.29z"/>
            <path class="st0" d="M398.47,98.38V75.21h-8.28v-4.72h22.16v4.72h-8.26v23.17H398.47z"/>
            <path class="st0" d="M428.2,98.38V70.49h5.63v10.98h11.03V70.49h5.63v27.89h-5.63V86.19h-11.03v12.19H428.2z"/>
            <path class="st0" d="M456.55,84.61c0-2.84,0.42-5.22,1.27-7.15c0.63-1.42,1.5-2.7,2.6-3.82c1.1-1.13,2.3-1.96,3.6-2.51
			c1.74-0.74,3.74-1.1,6.01-1.1c4.11,0,7.4,1.27,9.86,3.82c2.47,2.55,3.7,6.09,3.7,10.63c0,4.5-1.22,8.02-3.67,10.57
			c-2.45,2.54-5.72,3.81-9.82,3.81c-4.15,0-7.44-1.26-9.89-3.79S456.55,89.05,456.55,84.61z M462.35,84.42
			c0,3.16,0.73,5.55,2.19,7.18c1.46,1.63,3.31,2.44,5.55,2.44s4.09-0.81,5.53-2.43s2.16-4.04,2.16-7.28c0-3.2-0.7-5.58-2.1-7.15
			s-3.26-2.36-5.58-2.36s-4.19,0.8-5.61,2.39C463.06,78.81,462.35,81.21,462.35,84.42z"/>
            <path class="st0" d="M487.93,89.3l5.48-0.53c0.33,1.84,1,3.19,2.01,4.05c1.01,0.86,2.37,1.29,4.08,1.29c1.81,0,3.18-0.38,4.1-1.15
			c0.92-0.77,1.38-1.66,1.38-2.69c0-0.66-0.19-1.22-0.58-1.68s-1.06-0.87-2.03-1.21c-0.66-0.23-2.16-0.63-4.51-1.22
			c-3.02-0.75-5.14-1.67-6.35-2.76c-1.71-1.53-2.57-3.41-2.57-5.61c0-1.42,0.4-2.75,1.21-3.99c0.8-1.24,1.97-2.18,3.48-2.82
			c1.51-0.65,3.34-0.97,5.49-0.97c3.5,0,6.13,0.77,7.9,2.3c1.77,1.54,2.7,3.58,2.79,6.14l-5.63,0.25c-0.24-1.43-0.76-2.46-1.55-3.09
			c-0.79-0.63-1.98-0.94-3.57-0.94c-1.64,0-2.92,0.34-3.84,1.01c-0.6,0.43-0.89,1.01-0.89,1.73c0,0.66,0.28,1.22,0.84,1.69
			c0.71,0.6,2.43,1.22,5.17,1.86c2.74,0.65,4.77,1.32,6.08,2.01c1.31,0.69,2.34,1.64,3.08,2.83c0.74,1.2,1.11,2.68,1.11,4.44
			c0,1.6-0.44,3.09-1.33,4.49c-0.89,1.4-2.14,2.43-3.77,3.11c-1.62,0.68-3.65,1.02-6.07,1.02c-3.53,0-6.23-0.81-8.12-2.44
			C489.43,94.8,488.3,92.42,487.93,89.3z"/>
            <path class="st0" d="M522.99,98.38V75.21h-8.28v-4.72h22.16v4.72h-8.26v23.17H522.99z"/>
	</g>
</g>
</svg>
