<?xml version="1.0" encoding="utf-8"?>
<!-- Generator: Adobe Illustrator 25.0.0, SVG Export Plug-In . SVG Version: 6.00 Build 0)  -->
<svg version="1.1" id="Layer_1" xmlns="http://www.w3.org/2000/svg" xmlns:xlink="http://www.w3.org/1999/xlink" x="0px" y="0px"
	 viewBox="0 0 566.9 168.9" style="enable-background:new 0 0 566.9 168.9;" xml:space="preserve">
<style type="text/css">
	.st0{fill:#68348B;}
	.st1{fill:#E9AE0B;}
</style>
<g>
	<g>
		<g>
			<path class="st0" d="M30.1,88.9c0-20.5,0-40.9,0-61.4c37.2,0,74.4,0,111.6,0c0,10.8,0,21.5,0,32.3c0,4.4,0,4.4-4.4,4.4
				c-2.9,0-5.8,0-8.9,0c0-8,0-15.7,0-23.4c-28.5,0-56.7,0-85,0c0,11.7,0,23.2,0,35c32.8,0,65.4,0,98.2,0c0,20.6,0,41,0,61.3
				c-37.2,0-74.4,0-111.6,0c0-12.3,0-24.5,0-36.7c4.3,0,8.7,0,13.3,0c0,7.9,0,15.6,0,23.3c28.5,0,56.8,0,85.1,0
				c0-11.7,0-23.2,0-34.8C95.5,88.9,62.8,88.9,30.1,88.9z"/>
			<path class="st0" d="M173.5,137.1c-7.4,0-14.9,0-22.3,0c-0.1-0.8-0.2-1.6-0.2-2.4c0-35,0-69.9,0-104.9c0-0.8,0.1-1.6,0.2-2.4
				c4.4,0,8.8,0,13.1,0c0,0.3-0.1,0.7-0.1,1c0,15.3,0,30.5,0,45.8c0,0.4,0.1,0.9,0.2,1.2c28.4,0,56.6,0,84.8,0
				c0.1-0.3,0.2-0.5,0.2-0.7c0-10.9,0-21.8,0-32.7c0-1.2-0.5-1.5-1.5-1.5c-2.5,0-5,0-7.9,0c0-4.6,0-8.9,0-13.2c7.4,0,14.9,0,22.3,0
				c0,36.5,0,73.1,0,109.6c-4.2,0-8.5,0-12.8,0c-0.1-0.8-0.2-1.6-0.2-2.4c0-14.5,0-29,0-43.4c0-0.8,0-1.5,0-2.3
				c-28.6,0-56.8,0-85.1,0c0,11.6,0,23.1,0,34.9c3,0,6,0,9.2,0C173.5,128.5,173.5,132.8,173.5,137.1z"/>
			<g>
				<path class="st1" d="M96.9,51.6c0,4.4,0,8.6,0,12.9c-14.8,0-29.5,0-44.4,0c0-4.3,0-8.5,0-12.9C67.4,51.6,82.1,51.6,96.9,51.6z"
					/>
			</g>
			<g>
				<path class="st1" d="M106.3,51.6c4.4,0,8.6,0,12.9,0c0,4.3,0,8.6,0,13c-4.3,0-8.6,0-12.9,0C106.3,60.3,106.3,56,106.3,51.6z"/>
			</g>
			<g>
				<path class="st1" d="M217.8,99.8c0,4.3,0,8.6,0,12.9c-0.7,0.1-1.2,0.1-1.8,0.1c-13.5,0-27,0-40.4,0c-1.8,0-2.3-0.5-2.2-2.2
					c0.1-3.6,0-7.2,0-10.9C188.3,99.8,202.9,99.8,217.8,99.8z"/>
			</g>
			<g>
				<path class="st1" d="M227.1,99.8c4.6,0,8.7,0,13.2,0c0,2.8,0,5.4,0,8.1c0,5,0,5-5,5c-2.3,0-4.5,0.1-6.8-0.1
					c-0.5,0-1.4-0.7-1.4-1C227,107.9,227.1,103.9,227.1,99.8z"/>
			</g>
			<g>
				<path class="st1" d="M173.4,51.6c14.9,0,29.6,0,44.4,0c0,4.3,0,8.6,0,13c-0.7,0-1.3,0.1-1.9,0.1c-13.4,0-26.8-0.1-40.2,0
					c-1.9,0-2.4-0.6-2.3-2.4C173.5,58.8,173.4,55.3,173.4,51.6z"/>
			</g>
			<g>
				<path class="st1" d="M227.1,51.6c4.5,0,8.7,0,13.2,0c0,2.7,0,5.4,0,8.1c0,5,0,5-5,5c-2.3,0-4.5,0-6.8-0.1c-0.5,0-1.4-0.7-1.4-1
					C227,59.7,227.1,55.7,227.1,51.6z"/>
			</g>
			<g>
				<path class="st1" d="M52.5,112.9c0-4.5,0-8.7,0-13.1c14.8,0,29.5,0,44.3,0c0.1,0.4,0.2,0.9,0.2,1.3c0,3.4,0,6.8,0,10.2
					c0,1-0.1,1.7-1.3,1.7C81.3,112.9,67,112.9,52.5,112.9z"/>
			</g>
			<g>
				<path class="st1" d="M119.3,112.8c-4.4,0-8.6,0-13,0c0-4.3,0-8.6,0-13c4.3,0,8.6,0,13,0C119.3,104.2,119.3,108.4,119.3,112.8z"
					/>
			</g>
		</g>
	</g>
	<g>
		<path class="st0" d="M270.6,87.2l5.5-0.5c0.3,1.8,1,3.2,2,4.1s2.4,1.3,4.1,1.3c1.8,0,3.2-0.4,4.1-1.2c0.9-0.8,1.4-1.7,1.4-2.7
			c0-0.7-0.2-1.2-0.6-1.7c-0.4-0.5-1.1-0.9-2-1.2c-0.7-0.2-2.2-0.6-4.5-1.2c-3-0.8-5.1-1.7-6.4-2.8c-1.7-1.5-2.6-3.4-2.6-5.6
			c0-1.4,0.4-2.8,1.2-4s2-2.2,3.5-2.8c1.5-0.7,3.3-1,5.5-1c3.5,0,6.1,0.8,7.9,2.3c1.8,1.5,2.7,3.6,2.8,6.1l-5.6,0.2
			c-0.2-1.4-0.8-2.5-1.5-3.1c-0.8-0.6-2-0.9-3.6-0.9c-1.6,0-2.9,0.3-3.8,1c-0.6,0.4-0.9,1-0.9,1.7c0,0.7,0.3,1.2,0.8,1.7
			c0.7,0.6,2.4,1.2,5.2,1.9c2.7,0.7,4.8,1.3,6.1,2s2.3,1.6,3.1,2.8s1.1,2.7,1.1,4.4c0,1.6-0.5,3.1-1.3,4.5c-0.9,1.4-2.1,2.4-3.8,3.1
			c-1.6,0.7-3.6,1-6.1,1c-3.5,0-6.2-0.8-8.1-2.4C272.1,92.7,271,90.3,270.6,87.2z"/>
		<path class="st0" d="M299.3,96.2V68.3h8.4l5.1,19l5-19h8.5v27.9H321V74.3l-5.5,22H310l-5.5-21.9v21.9
			C304.5,96.2,299.3,96.2,299.3,96.2z"/>
		<path class="st0" d="M358.3,96.2h-6.1l-2.4-6.3h-11.1l-2.3,6.3h-6l10.9-27.9h6L358.3,96.2z M348,85.2l-3.8-10.3l-3.8,10.3H348z"/>
		<path class="st0" d="M362.7,96.2V68.3h11.9c3,0,5.1,0.2,6.5,0.8s2.4,1.4,3.2,2.7s1.2,2.8,1.2,4.4c0,2.1-0.6,3.8-1.9,5.2
			s-3.1,2.2-5.5,2.6c1.2,0.7,2.2,1.5,3,2.3c0.8,0.8,1.9,2.4,3.2,4.5l3.4,5.4h-6.7l-4.1-6.1c-1.5-2.2-2.4-3.5-3-4.1
			c-0.5-0.6-1.1-0.9-1.7-1.2c-0.6-0.2-1.5-0.3-2.8-0.3h-1.1v11.6L362.7,96.2L362.7,96.2z M368.3,80.1h4.2c2.7,0,4.4-0.1,5.1-0.3
			s1.2-0.6,1.6-1.2c0.4-0.6,0.6-1.3,0.6-2.1c0-0.9-0.2-1.7-0.8-2.3s-1.2-0.9-2.1-1.1c-0.5-0.1-1.8-0.1-4.1-0.1h-4.4L368.3,80.1
			L368.3,80.1z"/>
		<path class="st0" d="M398.5,96.2V73.1h-8.3v-4.7h22.2v4.7h-8.3v23.2H398.5z"/>
		<path class="st0" d="M428.2,96.2V68.3h5.6v11h11v-11h5.6v27.9h-5.6V84h-11v12.2C433.8,96.2,428.2,96.2,428.2,96.2z"/>
		<path class="st0" d="M456.6,82.5c0-2.8,0.4-5.2,1.3-7.2c0.6-1.4,1.5-2.7,2.6-3.8c1.1-1.1,2.3-2,3.6-2.5c1.7-0.7,3.7-1.1,6-1.1
			c4.1,0,7.4,1.3,9.9,3.8c2.5,2.6,3.7,6.1,3.7,10.6c0,4.5-1.2,8-3.7,10.6c-2.5,2.5-5.7,3.8-9.8,3.8c-4.1,0-7.4-1.3-9.9-3.8
			S456.6,86.9,456.6,82.5z M462.4,82.3c0,3.2,0.7,5.6,2.2,7.2s3.3,2.4,5.5,2.4s4.1-0.8,5.5-2.4s2.2-4,2.2-7.3c0-3.2-0.7-5.6-2.1-7.2
			s-3.3-2.4-5.6-2.4s-4.2,0.8-5.6,2.4C463.1,76.7,462.4,79.1,462.4,82.3z"/>
		<path class="st0" d="M487.9,87.2l5.5-0.5c0.3,1.8,1,3.2,2,4.1s2.4,1.3,4.1,1.3c1.8,0,3.2-0.4,4.1-1.2c0.9-0.8,1.4-1.7,1.4-2.7
			c0-0.7-0.2-1.2-0.6-1.7s-1.1-0.9-2-1.2c-0.7-0.2-2.2-0.6-4.5-1.2c-3-0.8-5.1-1.7-6.4-2.8c-1.7-1.5-2.6-3.4-2.6-5.6
			c0-1.4,0.4-2.8,1.2-4c0.8-1.2,2-2.2,3.5-2.8c1.5-0.7,3.3-1,5.5-1c3.5,0,6.1,0.8,7.9,2.3c1.8,1.5,2.7,3.6,2.8,6.1l-5.6,0.2
			c-0.2-1.4-0.8-2.5-1.5-3.1c-0.8-0.6-2-0.9-3.6-0.9c-1.6,0-2.9,0.3-3.8,1c-0.6,0.4-0.9,1-0.9,1.7c0,0.7,0.3,1.2,0.8,1.7
			c0.7,0.6,2.4,1.2,5.2,1.9c2.7,0.7,4.8,1.3,6.1,2s2.3,1.6,3.1,2.8c0.7,1.2,1.1,2.7,1.1,4.4c0,1.6-0.4,3.1-1.3,4.5
			c-0.9,1.4-2.1,2.4-3.8,3.1c-1.6,0.7-3.6,1-6.1,1c-3.5,0-6.2-0.8-8.1-2.4C489.4,92.7,488.3,90.3,487.9,87.2z"/>
		<path class="st0" d="M523,96.2V73.1h-8.3v-4.7h22.2v4.7h-8.3v23.2H523z"/>
	</g>
</g>
</svg>
