<?xml version="1.0" standalone="no"?>
<!DOCTYPE svg PUBLIC "-//W3C//DTD SVG 20010904//EN"
 "http://www.w3.org/TR/2001/REC-SVG-20010904/DTD/svg10.dtd">
<svg version="1.0" xmlns="http://www.w3.org/2000/svg"
 width="1456.000000pt" height="1420.000000pt" viewBox="0 0 1456.000000 1420.000000"
 preserveAspectRatio="xMidYMid meet">

<g transform="translate(0.000000,1420.000000) scale(0.100000,-0.100000)"
fill="#29D391" stroke="none">
<path d="M6155 14160 c-361 -51 -907 -176 -1250 -287 -152 -49 -631 -240 -839
-335 -388 -176 -963 -532 -1311 -811 -677 -543 -1100 -992 -1490 -1582 -260
-393 -458 -730 -562 -956 -197 -431 -394 -973 -482 -1326 -143 -569 -198 -997
-208 -1610 -11 -655 41 -1183 169 -1725 24 -105 34 -131 55 -148 37 -29 56
-25 125 25 73 55 181 107 263 130 34 9 120 19 198 22 153 6 167 12 167 66 0
18 -23 143 -50 277 -58 283 -94 522 -111 735 -21 263 5 1106 42 1380 25 190
156 751 234 1010 99 327 380 954 563 1257 288 477 531 795 939 1233 294 315
561 538 1003 838 224 151 365 231 705 399 381 188 688 305 1118 429 219 62
259 71 267 59 6 -9 10 -233 10 -541 0 -487 -1 -528 -17 -548 -12 -14 -50 -30
-111 -46 -268 -72 -745 -282 -1107 -490 -315 -180 -463 -293 -932 -708 -197
-173 -203 -180 -203 -217 0 -35 3 -39 40 -54 22 -9 54 -16 71 -16 43 0 167
-54 252 -109 96 -63 183 -154 240 -250 46 -78 61 -91 97 -91 10 0 119 84 241
186 270 224 425 343 550 422 421 264 890 441 1530 577 55 11 83 23 100 41 l24
26 0 1365 0 1365 -24 19 c-30 25 -58 23 -306 -11z"/>
<path d="M7774 14170 c-53 -21 -54 -29 -54 -388 0 -208 4 -340 10 -352 17 -32
42 -39 197 -60 366 -49 536 -85 898 -190 374 -108 796 -271 1108 -426 382
-192 923 -552 1297 -866 404 -339 810 -801 1135 -1293 325 -491 627 -1130 769
-1630 105 -372 158 -609 212 -947 34 -218 49 -270 79 -282 27 -10 671 -7 699
4 15 5 28 20 32 37 14 55 -79 696 -131 903 -81 325 -241 839 -325 1050 -101
254 -307 677 -456 940 -270 477 -698 1036 -1098 1435 -348 347 -971 836 -1366
1072 -559 333 -1003 530 -1653 732 -333 104 -486 137 -1027 220 -146 23 -274
43 -285 45 -11 2 -30 0 -41 -4z"/>
<path d="M7745 12245 l-25 -24 0 -380 c0 -217 4 -390 10 -405 15 -42 54 -58
223 -92 607 -122 1036 -306 1612 -690 345 -229 627 -488 888 -814 283 -353
457 -645 620 -1040 122 -296 182 -485 247 -783 49 -221 62 -260 96 -276 17 -8
142 -11 412 -11 463 0 437 -6 429 104 -5 82 -97 501 -157 718 -160 583 -399
1067 -810 1643 -168 234 -281 367 -494 581 -522 521 -1045 874 -1661 1122
-503 202 -834 299 -1190 351 -175 26 -171 26 -200 -4z"/>
<path d="M2859 10340 c-191 -24 -354 -113 -507 -275 -67 -70 -92 -106 -132
-188 -120 -248 -130 -460 -34 -696 56 -137 58 -146 40 -216 -8 -34 -38 -131
-65 -216 -157 -488 -193 -668 -241 -1184 -32 -346 -34 -429 -16 -690 27 -390
43 -525 101 -810 60 -300 99 -430 240 -810 106 -285 143 -369 251 -568 268
-494 555 -879 954 -1277 272 -272 443 -409 776 -625 438 -284 600 -366 1054
-539 564 -216 996 -306 1605 -337 325 -16 559 -5 835 42 63 10 198 30 299 44
240 32 257 46 185 155 -133 205 -181 410 -135 587 26 100 26 135 3 156 -25 23
-46 22 -213 -13 -239 -49 -317 -55 -779 -55 -439 0 -497 4 -660 45 -41 11
-147 31 -235 45 -199 32 -298 58 -495 133 -387 148 -641 272 -895 440 -351
230 -553 391 -765 608 -207 212 -356 399 -543 684 -197 301 -293 495 -430 876
-131 362 -174 532 -207 816 -11 95 -28 229 -37 298 -37 260 -3 901 63 1190 31
137 128 493 155 569 26 76 49 96 158 137 145 56 260 118 337 183 316 266 390
716 177 1074 -62 105 -203 249 -298 305 -91 53 -227 98 -340 111 -98 12 -122
12 -206 1z m238 -522 c65 -24 150 -99 185 -165 42 -77 53 -157 34 -234 -21
-81 -52 -134 -111 -188 -73 -67 -134 -91 -235 -91 -72 0 -92 4 -138 27 -63 32
-150 122 -183 190 -20 39 -24 64 -24 133 0 101 20 152 95 233 106 116 234 148
377 95z"/>
<path d="M6200 10021 c-321 -100 -442 -155 -718 -327 -223 -138 -342 -232
-517 -408 -172 -173 -295 -329 -458 -582 -210 -327 -315 -620 -418 -1164 -27
-147 -37 -444 -19 -633 27 -296 73 -533 145 -752 86 -262 176 -435 404 -775
200 -298 196 -290 193 -472 -4 -211 29 -327 132 -471 50 -71 170 -189 236
-234 196 -133 445 -184 653 -134 251 60 471 230 581 448 14 28 38 91 52 140
24 78 27 105 28 243 1 175 -10 233 -70 359 -70 149 -196 290 -332 371 -95 56
-243 107 -348 120 -91 11 -127 9 -266 -17 -81 -15 -88 -15 -113 1 -33 21 -173
232 -230 346 -118 235 -175 394 -199 555 -9 61 -26 155 -38 210 -31 142 -29
321 6 575 34 244 44 285 110 440 172 400 304 610 503 801 222 212 486 381 810
520 65 27 127 59 138 70 19 19 20 35 23 397 1 290 -1 383 -11 402 -21 41 -69
36 -277 -29z m-388 -4803 c69 -32 129 -92 165 -166 25 -50 28 -68 28 -152 -1
-87 -3 -100 -32 -155 -36 -70 -105 -138 -171 -168 -38 -18 -66 -22 -147 -22
-89 0 -106 3 -156 27 -76 38 -126 89 -162 167 -26 55 -31 77 -31 145 0 45 5
100 12 123 28 96 119 185 221 218 73 23 202 15 273 -17z"/>
<path d="M7736 10048 c-14 -19 -16 -72 -16 -378 0 -318 2 -359 18 -389 24 -48
48 -63 212 -131 282 -117 491 -258 711 -479 75 -75 165 -174 200 -221 122
-162 241 -378 316 -575 21 -57 45 -100 64 -117 l29 -28 370 0 c212 0 379 4
394 10 46 17 43 45 -29 262 -117 356 -205 546 -360 778 -409 612 -1011 1058
-1695 1255 -145 42 -192 44 -214 13z"/>
<path d="M7065 8992 c-27 -15 -194 -112 -370 -214 -176 -102 -482 -279 -680
-392 -198 -114 -370 -218 -382 -232 l-23 -25 0 -858 c0 -845 0 -859 20 -884
11 -14 199 -128 418 -253 218 -125 535 -307 703 -405 384 -222 365 -212 408
-206 22 3 144 67 311 164 151 88 471 272 710 410 517 297 476 271 489 300 8
17 11 291 11 873 0 582 -3 856 -11 873 -13 29 51 -10 -649 392 -327 189 -647
373 -710 410 -140 82 -173 88 -245 47z m-761 -1015 c103 -59 98 -205 -9 -257
-49 -24 -74 -25 -118 -6 -79 33 -115 123 -78 199 39 80 128 108 205 64z m1627
-160 c43 -29 88 -112 96 -177 3 -27 9 -50 12 -50 59 -2 137 -23 157 -41 34
-32 47 -88 32 -134 -19 -57 -52 -75 -172 -95 -157 -27 -206 -45 -270 -101
l-55 -50 -6 33 c-3 18 -9 53 -13 78 -7 39 -11 45 -38 51 -42 8 -49 14 -68 53
-36 76 -8 144 75 187 34 17 39 24 39 53 0 61 38 162 71 190 39 33 93 35 140 3z
m-1620 -260 c69 -46 70 -51 67 -442 -3 -348 -3 -350 -26 -383 -61 -85 -189
-82 -244 7 -23 36 -23 40 -23 386 0 318 2 353 18 383 39 71 140 95 208 49z
m940 -6 c86 -33 166 -95 209 -163 63 -96 75 -144 75 -293 0 -125 -1 -132 -29
-182 -59 -106 -190 -207 -311 -239 -160 -43 -414 10 -533 111 -45 39 -104 147
-122 224 -18 75 -8 221 19 291 29 77 88 151 141 178 39 20 55 23 122 19 61 -4
88 -11 138 -38 81 -43 129 -109 79 -109 -127 0 -220 -106 -218 -249 1 -70 16
-112 54 -153 59 -62 163 -86 239 -54 66 28 117 117 131 231 8 64 -16 184 -49
239 -47 80 -144 149 -246 175 -72 19 -78 23 -45 32 17 4 89 6 160 5 105 -2
141 -7 186 -25z m811 -636 c15 -13 48 -27 73 -31 95 -14 150 -86 108 -142 -11
-14 -39 -37 -64 -50 -40 -21 -53 -23 -139 -19 -109 5 -150 19 -210 73 -64 58
-80 98 -80 201 1 148 36 196 193 259 l82 33 5 -150 c5 -149 5 -151 32 -174z"/>
<path d="M13571 6799 c-176 -23 -353 -117 -493 -262 -288 -297 -306 -792 -41
-1109 60 -71 83 -109 83 -135 0 -35 -97 -324 -155 -461 -138 -328 -312 -690
-422 -874 -183 -310 -538 -793 -790 -1075 -328 -367 -680 -669 -1143 -979
-367 -246 -537 -341 -928 -518 -417 -189 -569 -242 -1020 -355 -431 -108 -555
-131 -867 -161 -580 -55 -1120 -48 -1605 20 -209 30 -858 183 -1051 249 -188
63 -663 258 -834 341 -575 281 -1151 697 -1641 1185 -345 344 -561 612 -851
1059 -93 143 -123 198 -123 222 0 19 17 64 39 106 153 283 126 624 -71 890
-156 212 -372 328 -638 345 -233 14 -448 -66 -630 -234 -130 -120 -210 -260
-244 -426 -21 -102 -22 -284 -2 -371 45 -193 184 -403 336 -506 90 -61 152
-88 302 -131 79 -22 153 -47 165 -55 12 -7 50 -60 85 -116 70 -115 351 -519
467 -673 332 -441 735 -855 1146 -1176 210 -164 692 -498 875 -606 327 -193
605 -326 1045 -500 323 -127 457 -171 767 -247 591 -146 681 -160 1358 -211
322 -24 329 -24 675 -10 549 23 690 43 1373 196 424 95 524 124 857 255 590
231 811 342 1336 670 890 556 1705 1398 2277 2351 200 334 302 541 473 959
127 313 154 385 180 487 36 143 66 179 214 257 316 166 477 429 476 780 0 231
-87 418 -279 602 -143 136 -270 196 -465 217 -107 12 -143 12 -236 0z m274
-518 c79 -35 130 -84 169 -163 33 -64 36 -79 36 -154 0 -152 -66 -261 -198
-326 -60 -30 -75 -33 -152 -33 -71 0 -95 5 -142 27 -75 35 -141 98 -175 167
-25 50 -28 66 -28 161 0 101 2 108 34 168 47 87 126 148 225 173 53 14 179 3
231 -20z m-12714 -1553 c73 -33 128 -83 165 -150 26 -48 29 -62 29 -143 0 -84
-2 -95 -34 -153 -90 -166 -274 -237 -446 -172 -83 32 -175 123 -200 199 -49
150 47 344 210 423 54 26 68 29 140 26 59 -3 95 -11 136 -30z"/>
<path d="M9273 6490 c-48 -11 -59 -24 -89 -103 -45 -121 -99 -231 -170 -349
-278 -465 -501 -687 -890 -881 -271 -136 -420 -189 -634 -229 -95 -18 -159
-22 -373 -23 -226 -2 -261 -5 -275 -19 -14 -14 -18 -47 -23 -179 -8 -192 -11
-204 -115 -379 -47 -78 -78 -142 -81 -166 -5 -37 -3 -40 26 -50 98 -34 599
-41 861 -12 244 27 526 111 860 255 542 233 1031 671 1351 1211 40 67 82 127
93 135 18 12 129 13 681 10 363 -2 661 -4 663 -6 10 -8 -28 -119 -80 -235
-129 -288 -270 -545 -441 -800 -245 -368 -551 -691 -914 -968 -121 -92 -110
-89 -265 -52 -266 65 -452 36 -665 -102 -183 -119 -305 -287 -359 -493 -26
-100 -26 -371 0 -470 58 -220 209 -406 413 -509 108 -54 216 -78 374 -83 126
-5 157 -3 230 16 152 39 273 106 393 220 152 146 214 271 251 501 10 58 23
117 30 131 8 14 105 98 217 186 521 411 863 800 1225 1394 191 312 395 758
488 1064 85 279 223 892 211 938 -3 15 -16 32 -29 39 -17 10 -316 13 -1477 15
-800 0 -1470 -2 -1487 -7z m137 -3336 c77 -42 137 -104 173 -182 27 -57 32
-78 31 -142 0 -64 -5 -84 -33 -138 -42 -83 -107 -146 -187 -184 -62 -29 -71
-30 -151 -25 -153 9 -268 85 -313 205 -38 101 -33 237 11 324 78 152 317 225
469 142z"/>
</g>
</svg>
